<svg width="19" height="20" viewBox="0 0 19 20" fill="none" xmlns="http://www.w3.org/2000/svg">
<path d="M9.61084 5.31966C12.2358 5.31966 14.4025 7.48633 14.4025 10.1113C14.4025 12.778 12.2358 14.903 9.61084 14.903C6.94417 14.903 4.81917 12.778 4.81917 10.1113C4.81917 7.48633 6.94417 5.31966 9.61084 5.31966ZM9.61084 13.2363C11.3192 13.2363 12.6942 11.8613 12.6942 10.1113C12.6942 8.403 11.3192 7.028 9.61084 7.028C7.86084 7.028 6.48584 8.403 6.48584 10.1113C6.48584 11.8613 7.90251 13.2363 9.61084 13.2363ZM15.6942 5.153C15.6942 5.778 15.1942 6.278 14.5692 6.278C13.9442 6.278 13.4442 5.778 13.4442 5.153C13.4442 4.528 13.9442 4.028 14.5692 4.028C15.1942 4.028 15.6942 4.528 15.6942 5.153ZM18.8608 6.278C18.9442 7.81966 18.9442 12.4447 18.8608 13.9863C18.7775 15.4863 18.4442 16.778 17.3608 17.903C16.2775 18.9863 14.9442 19.3197 13.4442 19.403C11.9025 19.4863 7.27751 19.4863 5.73584 19.403C4.23584 19.3197 2.94417 18.9863 1.81917 17.903C0.73584 16.778 0.402507 15.4863 0.319173 13.9863C0.23584 12.4447 0.23584 7.81966 0.319173 6.278C0.402507 4.778 0.73584 3.44466 1.81917 2.36133C2.94417 1.278 4.23584 0.944662 5.73584 0.861329C7.27751 0.777996 11.9025 0.777996 13.4442 0.861329C14.9442 0.944662 16.2775 1.278 17.3608 2.36133C18.4442 3.44466 18.7775 4.778 18.8608 6.278ZM16.8608 15.6113C17.3608 14.403 17.2358 11.4863 17.2358 10.1113C17.2358 8.778 17.3608 5.86133 16.8608 4.61133C16.5275 3.81966 15.9025 3.153 15.1108 2.86133C13.8608 2.36133 10.9442 2.48633 9.61084 2.48633C8.23584 2.48633 5.31917 2.36133 4.11084 2.86133C3.27751 3.19466 2.65251 3.81966 2.31917 4.61133C1.81917 5.86133 1.94417 8.778 1.94417 10.1113C1.94417 11.4863 1.81917 14.403 2.31917 15.6113C2.65251 16.4447 3.27751 17.0697 4.11084 17.403C5.31917 17.903 8.23584 17.778 9.61084 17.778C10.9442 17.778 13.8608 17.903 15.1108 17.403C15.9025 17.0697 16.5692 16.4447 16.8608 15.6113Z" fill="white"/>
</svg>
