<svg width="19" height="20" viewBox="0 0 19 20" fill="none" xmlns="http://www.w3.org/2000/svg">
<path d="M17.6106 0.777996C18.3189 0.777996 18.9439 1.403 18.9439 2.153V18.1113C18.9439 18.8613 18.3189 19.4447 17.6106 19.4447H1.56893C0.860596 19.4447 0.277263 18.8613 0.277263 18.1113V2.153C0.277263 1.403 0.860596 0.777996 1.56893 0.777996H17.6106ZM5.90226 16.778V7.903H3.15226V16.778H5.90226ZM4.52726 6.653C5.40226 6.653 6.1106 5.94466 6.1106 5.06966C6.1106 4.19466 5.40226 3.44466 4.52726 3.44466C3.6106 3.44466 2.90226 4.19466 2.90226 5.06966C2.90226 5.94466 3.6106 6.653 4.52726 6.653ZM16.2773 16.778V11.903C16.2773 9.528 15.7356 7.653 12.9439 7.653C11.6106 7.653 10.6939 8.403 10.3189 9.11133H10.2773V7.903H7.65226V16.778H10.4023V12.403C10.4023 11.2363 10.6106 10.1113 12.0689 10.1113C13.4856 10.1113 13.4856 11.4447 13.4856 12.4447V16.778H16.2773Z" fill="white"/>
</svg>
