<svg width="700" height="509" viewBox="0 0 700 509" fill="none" xmlns="http://www.w3.org/2000/svg">
<path d="M45.9611 502.149C45.9611 502.149 -4.66639 382.973 59.3627 292.908C123.392 202.844 84.3404 123.004 196.763 43.5184C341.264 -58.647 480.641 42.1543 522.204 110.497C563.767 178.84 704.937 143.953 663.91 338.418C632.083 489.269 655.832 495.887 655.832 495.887L45.9611 502.149Z" fill="#E9EDE9"/>
<path d="M76.4662 469.91C76.4662 469.91 -13.3798 422.971 8.26876 317.424C29.9173 211.876 118.085 186.831 154.344 194.579C222.305 209.102 111.272 251.951 84.7488 178.404C51.4699 86.1238 170.126 16.2571 280.119 34.3382C350.809 45.9591 384.932 79.7985 447.77 101.062C510.384 122.249 536.646 93.8722 511.699 77.4263C488.019 61.8135 402.041 87.2851 431.561 122.196C471.983 169.998 569.398 95.9362 644.898 178.404C720.398 260.872 654.854 364.55 596.811 373.196C538.768 381.841 564.218 298.527 654.854 364.552C745.49 430.577 631.004 502.153 631.004 502.153" stroke="#78D67E" stroke-miterlimit="10"/>
<path d="M693.399 508.752H6.60095C2.9544 508.752 0 505.796 0 502.151C0 498.504 2.95595 495.55 6.60095 495.55H700V502.151C700 505.796 697.044 508.752 693.399 508.752Z" fill="#49BD50"/>
<path d="M253.411 508.752H6.60096C2.9544 508.752 0 505.796 0 502.151V495.55H260.014V502.151C260.014 505.796 257.058 508.752 253.411 508.752Z" fill="#227226"/>
<path d="M356.012 243.892C326.601 300.409 293.555 323.434 293.555 323.434L322.094 368.999L371.93 317.21L356.012 243.892Z" fill="#227226"/>
<path d="M428.934 230.401L356.01 243.891C351.391 381.861 349.66 495.531 349.66 495.531H480.555C480.555 495.531 484.353 284.259 463.296 238.162L428.934 230.401Z" fill="#227226"/>
<path d="M420.469 300.712L455.996 297.706" stroke="#49BD50" stroke-width="4" stroke-miterlimit="10"/>
<path d="M404.16 271.059C404.16 271.059 426.71 424.937 407.09 487.199" stroke="#49BD50" stroke-miterlimit="10"/>
<path d="M380.551 348.138C380.551 348.138 402.331 356.905 430.568 357.832C458.805 358.76 441.237 373.784 399.377 370.935" stroke="#49BD50" stroke-miterlimit="10"/>
<path d="M386.164 224.792L404.161 272.607L428.936 230.402L412.608 203.718L386.164 224.792Z" fill="#E9A394"/>
<path d="M404.16 272.607L437.756 263.332L428.935 230.401L404.16 272.607Z" fill="#49BD50"/>
<path d="M390.162 235.417L371.93 255.782L404.16 272.607L390.162 235.417Z" fill="#49BD50"/>
<path d="M322.094 368.998C322.094 368.998 332.742 346.792 309.878 318.191C297.2 302.33 291.357 274.962 291.357 274.962L272.309 277.859L289.752 369H322.094V368.998Z" fill="#E9A394"/>
<path d="M268.414 246.386L260.614 253.474L271.041 262.678L238.391 262.122L237.691 273.325L272.307 277.859L291.357 274.962L268.414 246.386Z" fill="#E9A394"/>
<path d="M274.118 263.834L242.792 250.912L240.77 256.477L266.916 267.465L274.118 263.834Z" fill="#E9A394"/>
<path d="M463.301 238.162C463.301 238.162 505.382 262.123 518.671 351.873L469.849 363.653L463.301 238.162Z" fill="#227226"/>
<path d="M371.905 166.361L356.012 207.028L368.165 210.768L371.905 233.674L410.705 224.792L416.314 162.621L371.905 166.361Z" fill="#E9A394"/>
<path d="M397.796 176.023H368.125L371.361 167.256L397.796 165.621V176.023Z" fill="#E37A82"/>
<path d="M413.304 194.577C413.304 194.577 394.374 190.661 394.374 171.078C394.374 171.078 366.287 174.901 356.591 159.655C345.106 141.596 362.658 120.842 377.152 125.059C377.152 125.059 368.018 134.112 381.891 135.176C391.783 135.935 409.861 122.773 416.315 135.503C416.315 135.503 466.11 146.876 428.936 193.272L413.304 194.577Z" fill="#291D4C"/>
<path d="M394.371 169.53C394.371 169.53 356.827 176.784 348.974 149.86C344.383 134.12 360.16 125.156 360.16 125.156" stroke="#291D4C" stroke-width="2" stroke-miterlimit="10"/>
<path d="M378.485 205.732C386.313 205.732 392.658 199.387 392.658 191.559C392.658 183.732 386.313 177.387 378.485 177.387C370.658 177.387 364.312 183.732 364.312 191.559C364.312 199.387 370.658 205.732 378.485 205.732Z" stroke="#291D4C" stroke-width="0.5" stroke-miterlimit="10"/>
<path d="M391.895 186.973L412.08 188.078" stroke="#291D4C" stroke-width="0.5" stroke-miterlimit="10"/>
<path d="M437.755 198.146C437.755 206.924 425.995 214.039 417.217 214.039C408.439 214.039 405.969 206.923 405.969 198.146C405.969 189.37 413.085 182.253 421.862 182.253C430.638 182.253 437.755 189.37 437.755 198.146Z" fill="#E9A394"/>
<path d="M512.843 353.277V426.568H476.299L473.258 362.83L512.843 353.277Z" fill="#E9A394"/>
<path d="M353.165 336.709L354.7 285.642L331.027 359.715L353.165 336.709Z" fill="#1C145C"/>
<path d="M388.043 229.655L410.704 224.791L392.126 240.636L388.043 229.655Z" fill="#E37A82"/>
<path d="M374.643 198.146C376.141 198.146 377.355 195.613 377.355 192.488C377.355 189.363 376.141 186.83 374.643 186.83C373.144 186.83 371.93 189.363 371.93 192.488C371.93 195.613 373.144 198.146 374.643 198.146Z" fill="#291D4C"/>
<path d="M382.008 178.727C382.008 171.146 375.973 176.25 375.973 176.25L382.008 178.727Z" fill="#291D4C"/>
<path d="M375.973 212.291L384.605 209.993C384.605 209.993 388.304 242.012 375.973 212.291Z" fill="white"/>
<path d="M189.949 355.805C189.949 355.805 248.19 346.793 249.335 448.355C249.52 464.836 260.014 495.548 260.014 495.548H207.233L189.949 355.805Z" fill="#49BD50"/>
<path d="M129.048 346.794L93.8477 355.103L104.588 495.548H241.549C241.549 495.548 236.955 384.429 185.306 351.092L129.048 346.794Z" fill="#005005"/>
<path d="M93.8494 355.103C57.5682 363.378 66.0613 391.225 73.0664 448.408C54.9575 463.115 72.3309 469.735 72.3309 469.735C52.4429 490.817 77.2533 495.549 77.2533 495.549H143.486C143.486 495.549 130.155 346.822 93.8494 355.103Z" fill="#005005"/>
<path d="M139.547 463.11L123.652 390.148" stroke="#49BD50" stroke-miterlimit="10"/>
<path d="M77.2539 495.548C77.2539 495.548 88.4367 469.874 123.78 456.966C153.084 446.265 195.949 474.045 223.388 447.647L228.47 477.368L143.486 495.548H77.2539Z" fill="#E9A394"/>
<path d="M193.757 274.461L219.959 314.345L203.145 320.347L200.238 352.76L149.707 335.204L154.468 269.273L193.757 274.461Z" fill="#E9A394"/>
<path d="M154.876 316.356L129.047 346.794L162.171 387.388L177.11 339.975L154.876 316.356Z" fill="#E37A82"/>
<path d="M163.516 297.51L200.477 284.687L193.758 274.46L157.246 278.26L163.516 297.51Z" fill="#E37A82"/>
<path d="M160.323 311.482C160.323 311.482 171.514 333.886 163.728 290.699C163.728 290.699 174.347 291.891 182.664 277.876C182.664 277.876 180.08 300.714 204.475 277.876C228.871 255.037 197.857 237.168 159.961 243.891C127.114 249.72 94.2441 268.278 142.286 331.195L160.323 311.482Z" fill="#291D4C"/>
<path d="M154.341 320.39C151.821 323.77 147.49 326.838 142.987 327.494C133.981 328.806 125.186 321.697 123.874 312.691C122.563 303.686 127.112 299.009 136.116 297.698C141.178 296.961 147.039 298.461 151.435 301.516C152.764 303.172 154.341 320.39 154.341 320.39Z" fill="#E9A394"/>
<path d="M189.99 307.942C191.338 307.576 191.755 304.784 190.919 301.706C190.084 298.629 188.314 296.43 186.965 296.796C185.617 297.162 185.2 299.954 186.036 303.032C186.871 306.109 188.641 308.307 189.99 307.942Z" fill="#291D4C"/>
<path d="M179.745 294.538C179.745 294.538 178.432 287.132 185.307 290.698L179.745 294.538Z" fill="#291D4C"/>
<path d="M124.914 348.039L130.911 341.151L128.711 336.046L142.286 331.196L181.23 350.781L182.664 365.734L176.074 363.651L165.316 403.753L124.914 348.039Z" fill="#005005"/>
<path d="M160.078 357.831L182.662 365.734L181.228 350.781" stroke="#49BD50" stroke-miterlimit="10"/>
<path d="M163.727 290.699C163.727 290.699 168.27 317.14 174.914 322.577C177.096 324.362 181.226 319.821 200.237 319.44C211.861 319.207 211.852 359.782 196.427 358.62C181.001 357.457 157.559 347.839 154.046 318.264C150.966 292.319 163.727 290.699 163.727 290.699Z" fill="#291D4C"/>
<path d="M182.664 327.494C182.664 327.494 186.585 334.795 194.311 329.849" stroke="#C4C6C5" stroke-miterlimit="10"/>
<path d="M270.819 478.85H140.801V488.482C140.801 492.384 143.964 495.546 147.865 495.546H270.819C274.721 495.546 277.883 492.383 277.883 488.482V485.914C277.885 482.013 274.721 478.85 270.819 478.85Z" fill="#227226"/>
<path d="M376.413 382.282H225.169C220.674 382.282 216.878 385.624 216.309 390.082L204.124 485.485C203.443 490.824 207.602 495.548 212.984 495.548H364.229C368.724 495.548 372.519 492.207 373.089 487.749L385.273 392.346C385.955 387.007 381.795 382.282 376.413 382.282Z" fill="#227226"/>
<path d="M383.733 382.282H232.489C227.994 382.282 224.199 385.624 223.629 390.082L211.444 485.485C210.763 490.824 214.922 495.548 220.304 495.548H371.549C376.044 495.548 379.839 492.207 380.409 487.749L392.593 392.346C393.275 387.007 389.116 382.282 383.733 382.282Z" fill="#49BD50"/>
<path d="M311.75 449.166C318.048 443.19 318.793 433.749 313.413 428.079C308.033 422.409 298.566 422.657 292.267 428.633C285.969 434.609 285.225 444.05 290.605 449.72C295.984 455.39 305.452 455.142 311.75 449.166Z" fill="white"/>
<path d="M380.435 494.74H192.176" stroke="#227226" stroke-miterlimit="10"/>
<path d="M463.634 367.066L526.13 368.25L511.962 291.8L478.731 295.563C478.731 295.563 463.762 317.656 475.583 334.834C488.919 354.215 462.26 354.939 463.634 367.066Z" fill="#291D4C"/>
<path d="M478.729 295.562C478.729 295.562 463.761 317.655 475.581 334.834C488.919 354.217 462.26 354.939 463.634 367.066" stroke="#00AC0A" stroke-width="2" stroke-miterlimit="10"/>
<path d="M491.198 357.831C491.198 357.831 462.763 385.734 447.77 490.886H479.423L491.198 357.831Z" fill="#00AC0A"/>
<path d="M566.347 350.058L553.972 490.886H462.039L473.483 437.1C473.483 437.1 438.483 418.839 491.196 357.831L504.297 351.092L561.217 346.794L566.347 350.058Z" fill="#78D67E"/>
<path d="M491.198 420.858C491.198 420.858 485.687 430.298 490.986 437.876L483.184 490.886" stroke="#00AC0A" stroke-miterlimit="10"/>
<path d="M478.348 437.343L531.597 438.914" stroke="#00AC0A" stroke-miterlimit="10"/>
<path d="M542.096 463.852L536.465 396.116" stroke="#00AC0A" stroke-miterlimit="10"/>
<path d="M566.348 350.058C566.348 350.058 571.425 356.445 577.303 371.256C585.636 392.257 595.576 430.198 594.924 490.884H553.973L566.348 350.058Z" fill="#78D67E"/>
<path d="M594.926 495.531C594.926 495.531 574.465 448.737 523 462.128C466.806 476.75 445.939 474.017 445.939 474.017L441.68 495.531H594.926Z" fill="#E9A394"/>
<path d="M541.358 452.294L523.098 456.377L564.575 495.531H603.672C603.672 495.531 586.822 454.674 541.358 452.294Z" fill="#00AC0A"/>
<path d="M542.488 464.438L551.186 461.781" stroke="#78D67E" stroke-miterlimit="10"/>
<path d="M445.939 474.017L419.238 468.497L400.098 495.531H441.679L445.939 474.017Z" fill="#E9A394"/>
<path d="M491.199 420.858L540.817 371.24L531.599 366.888L566.351 350.058L550.393 339.903H513.252L491.199 367.468L497.292 368.998L491.199 373.272V420.858Z" fill="#00AC0A"/>
<path d="M525.889 356.77L542.098 345.568L524.6 306.444L497.48 323.479L505.12 355.932L491.199 420.858L525.889 356.77Z" fill="#E9A394"/>
<path d="M499.66 332.748L518.693 322.822L501.701 341.413L499.66 332.748Z" fill="#E37A82"/>
<path d="M464.889 276.106L456.578 322.166H469.045L483.042 341.413L518.692 322.823L493.759 267.27L464.889 276.106Z" fill="#E9A394"/>
<path d="M462.874 287.275L462.039 292.335L494.917 287.849L494.414 281.549L462.874 287.275Z" fill="#E37A82"/>
<path d="M555.764 272.607C547.534 250.297 537.471 241.695 537.471 241.695C517.303 221.654 482.827 243.893 482.827 243.893C438.647 233.199 456.581 288.049 456.581 288.049L492.56 283.636C497.591 313.818 515.583 298.535 515.583 298.535L523.973 313.67C523.973 313.67 515.508 321.152 524.334 333.979C531.601 344.541 514.2 348.139 518.696 359.382L588.241 344.968C588.241 299.209 570.638 312.928 555.764 272.607Z" fill="#291D4C"/>
<path d="M453.76 288.403C453.76 288.403 447.397 257.086 459.085 246.896C465.18 241.582 484.372 243.892 484.372 243.892" stroke="#00AC0A" stroke-width="2" stroke-miterlimit="10"/>
<path d="M592.793 343.649C592.793 343.649 598.347 322.822 568.086 299.207" stroke="#291D4C" stroke-width="2" stroke-miterlimit="10"/>
<path d="M516.614 315.605C524.888 315.605 531.595 308.897 531.595 300.624C531.595 292.35 524.888 285.643 516.614 285.643C508.34 285.643 501.633 292.35 501.633 300.624C501.633 308.897 508.34 315.605 516.614 315.605Z" fill="#E9A394"/>
<path d="M478.348 320.472L487.635 318.191C487.635 318.191 490.895 344.68 478.348 320.472Z" fill="white"/>
<path d="M470.613 304.819C470.613 304.819 473.569 286.803 480.037 304.819" stroke="#227226" stroke-width="0.5" stroke-miterlimit="10"/>
<path d="M472.895 291.113C472.895 291.113 476.495 285.016 480.761 291.113H472.895Z" fill="#291D4C"/>
<path d="M333.148 128.806C327.76 113.82 310.818 106.316 295.969 112.719C283.19 118.23 276.415 132.728 280.379 146.069C282.595 153.528 287.6 159.297 293.866 162.664C299.651 165.77 304.615 170.203 308.254 175.667L309.304 177.244L330.11 169.763L329.917 167.888C329.231 161.249 330.392 154.606 332.846 148.398C335.24 142.339 335.525 135.418 333.148 128.806Z" fill="#78D67E"/>
<path d="M333.148 128.806C327.76 113.82 310.818 106.316 295.969 112.719C283.19 118.23 276.415 132.728 280.379 146.069C282.595 153.528 287.6 159.297 293.866 162.664C299.651 165.77 304.615 170.203 308.254 175.667L309.304 177.244L330.11 169.763L329.917 167.888C329.231 161.249 330.392 154.606 332.846 148.398C335.24 142.339 335.525 135.418 333.148 128.806Z" fill="#78D67E"/>
<path d="M314.062 171.108L297.477 147.717C297.477 147.717 297.778 142.981 302.984 143.732C308.19 144.482 311.298 152.698 307.583 151.373C303.868 150.048 302.554 140.39 309.584 138.917C316.612 137.445 318.961 153.414 315.078 150.337C311.194 147.26 312.013 137.093 319.54 137.01L323.956 170.745" stroke="white" stroke-miterlimit="10"/>
<path d="M329.628 185.751L319.857 189.264C316.142 190.601 312.047 188.671 310.712 184.957L308.646 179.212C307.31 175.497 309.239 171.402 312.954 170.067L322.725 166.554C326.439 165.217 330.533 167.147 331.87 170.861L333.935 176.606C335.27 180.321 333.342 184.415 329.628 185.751Z" fill="#291D4C"/>
<path d="M331.928 161.352L302.504 171.931L307.668 186.294L337.092 175.716L331.928 161.352Z" fill="#49BD50"/>
<path d="M306.307 103.339L303.371 86.5088" stroke="#78D67E" stroke-miterlimit="10"/>
<path d="M285.104 113.364L271.047 99.6338" stroke="#78D67E" stroke-miterlimit="10"/>
<path d="M270.453 138.306L254.414 139.453" stroke="#78D67E" stroke-miterlimit="10"/>
<path d="M329.426 112.561L336.645 99.1748" stroke="#78D67E" stroke-miterlimit="10"/>
<path d="M555.249 236.2H654.702C658.159 236.2 661.471 233.397 662.098 229.938L672.375 173.239C673.003 169.782 670.706 166.978 667.249 166.978H567.796C564.338 166.978 561.026 169.78 560.399 173.239L550.122 229.938C549.497 233.396 551.792 236.2 555.249 236.2Z" fill="#227226"/>
<path d="M634.977 205.995C637.88 203.343 638.44 199.229 636.227 196.807C634.014 194.384 629.867 194.57 626.963 197.222C624.06 199.874 623.501 203.987 625.714 206.41C627.927 208.832 632.074 208.647 634.977 205.995Z" fill="white"/>
<path d="M615.223 205.994C618.126 203.342 618.686 199.229 616.473 196.806C614.26 194.383 610.113 194.569 607.21 197.221C604.307 199.873 603.747 203.986 605.96 206.409C608.173 208.832 612.32 208.646 615.223 205.994Z" fill="white"/>
<path d="M595.469 205.993C598.372 203.341 598.932 199.228 596.719 196.805C594.506 194.382 590.359 194.568 587.456 197.22C584.553 199.872 583.993 203.985 586.206 206.408C588.419 208.831 592.566 208.645 595.469 205.993Z" fill="white"/>
<path d="M608.775 232.471L574.219 253.008L580.412 230.852L608.775 232.471Z" fill="#227226"/>
<path d="M234.862 227.795H135.41C131.952 227.795 128.64 224.992 128.013 221.533L117.736 164.834C117.109 161.376 119.405 158.572 122.863 158.572H222.315C225.773 158.572 229.085 161.375 229.712 164.834L239.989 221.533C240.616 224.991 238.321 227.795 234.862 227.795Z" fill="#78D67E"/>
<path d="M164.348 197.978C166.561 195.556 166.001 191.442 163.098 188.79C160.195 186.138 156.048 185.953 153.835 188.375C151.622 190.798 152.182 194.911 155.085 197.563C157.988 200.215 162.135 200.401 164.348 197.978Z" fill="white"/>
<path d="M184.102 197.978C186.315 195.556 185.755 191.442 182.852 188.79C179.949 186.138 175.802 185.953 173.589 188.375C171.376 190.798 171.935 194.911 174.838 197.563C177.742 200.215 181.889 200.401 184.102 197.978Z" fill="white"/>
<path d="M203.856 197.979C206.069 195.557 205.509 191.443 202.606 188.791C199.703 186.139 195.556 185.954 193.343 188.376C191.13 190.799 191.689 194.912 194.592 197.564C197.495 200.216 201.643 200.402 203.856 197.979Z" fill="white"/>
<path d="M199.383 224.066L204.838 243.891L226.9 222.679L199.383 224.066Z" fill="#78D67E"/>
</svg>
