<svg width="16" height="11" viewBox="0 0 16 11" fill="none" xmlns="http://www.w3.org/2000/svg">
<path d="M0.704102 5.41992C0.722362 5.23693 0.803388 5.06478 0.93457 4.93359L0.993164 4.88086C1.13553 4.76419 1.31433 4.69922 1.5 4.69922L12.5674 4.69922L9.93359 2.06543L9.88086 2.00684C9.76406 1.86435 9.69922 1.68487 9.69922 1.49902C9.69931 1.28696 9.78372 1.08363 9.93359 0.933594C10.0837 0.783446 10.2877 0.699219 10.5 0.699219C10.7123 0.699219 10.9163 0.783446 11.0664 0.933594L15.0664 4.93359C15.1406 5.00774 15.2 5.09551 15.2402 5.19238C15.2805 5.28947 15.3007 5.39391 15.3008 5.49902C15.3008 5.6041 15.2804 5.70859 15.2402 5.80566C15.1999 5.90285 15.1399 5.99112 15.0654 6.06543H15.0664L11.0664 10.0654C10.9163 10.2156 10.7123 10.2998 10.5 10.2998L10.4209 10.2959C10.2376 10.2777 10.065 10.1968 9.93359 10.0654L9.88086 10.0068C9.76406 9.86435 9.69922 9.68487 9.69922 9.49902C9.69931 9.28696 9.78373 9.08363 9.93359 8.93359L12.5674 6.2998L1.5 6.2998C1.28797 6.2998 1.08457 6.21526 0.93457 6.06543L0.880859 6.00684C0.764155 5.86446 0.700195 5.68473 0.700195 5.49902L0.704102 5.41992Z" fill="white" stroke="white" stroke-width="0.6"/>
</svg>
