<svg width="191" height="55" viewBox="0 0 191 55" fill="none" xmlns="http://www.w3.org/2000/svg">
<g clip-path="url(#clip0_0_412)">
<path fill-rule="evenodd" clip-rule="evenodd" d="M88.7614 42.2488H63.6902L64.3474 38.1301C64.7229 35.7626 66.764 34.0196 69.16 34.0156L74.593 34.0075L75.1439 30.4725L76.932 19.1982C74.4461 20.884 71.7397 22.174 68.6334 22.8801L69.964 14.4959C73.8255 13.251 76.1318 11.3896 78.6176 8.5486H88.9124L84.8753 34.0197H89.8389L88.7614 42.2488ZM0 41.9304L12.2704 18.4594H19.0789L24.712 41.9304H17.9035L17.1687 38.8813H8.41695L6.80476 41.9304H0ZM11.3683 33.1788H15.793L14.4175 27.3784L11.3683 33.1788ZM37.4517 41.9304L37.7906 39.616C36.717 41.3263 35.1413 42.4325 32.7248 42.4325C28.3 42.4325 25.414 39.3833 26.2222 33.5503C27.059 27.7132 30.4471 24.664 35.0719 24.664C37.5537 24.664 38.8965 25.6354 39.5007 27.3784L40.9743 16.7818H47.0115L43.4889 41.9304H37.4517ZM32.4228 33.5503C32.1208 35.7627 32.9943 36.9015 35.0393 36.9015C37.117 36.9015 38.3251 35.7627 38.6272 33.5503C38.9292 31.3338 38.0558 30.1949 35.9781 30.1949C33.6636 30.1949 32.7249 31.3338 32.4228 33.5503ZM47.7788 30.5296L48.5178 25.166H63.6085L62.8698 30.5296L55.6611 36.5668H62.0329L61.2616 41.9304H46.1706L46.942 36.5668L54.1182 30.5296H47.7788ZM91.5328 25.1905C93.3534 13.5163 100.897 7.4383 110.791 7.4383C120.69 7.4383 126.327 13.5163 124.462 25.1905C122.596 36.8607 115.053 42.9427 105.158 42.9427C95.3046 42.9427 89.6674 36.8607 91.5328 25.1905ZM106.575 34.0645C110.881 34.0645 113.277 30.6031 114.167 25.1905C115.008 19.6432 113.677 16.3123 109.416 16.3123C105.114 16.3123 102.717 19.7738 101.828 25.1905C100.987 30.6031 102.317 34.0645 106.575 34.0645ZM115.188 49.637L135.058 24.3904L123.694 0.000976562H135.365L142.957 18.488L150.149 8.5486H161.864L148.949 24.3904L157.472 41.8325H145.443L140.916 31.2684L127.258 49.637H115.188ZM147.402 53.6006C147.508 52.874 148.088 52.3924 148.851 52.3924C149.606 52.3924 150.035 52.874 149.929 53.6006C149.819 54.3149 149.227 54.7966 148.476 54.7966C147.708 54.7966 147.28 54.3149 147.402 53.6006ZM160.787 51.1964L162.832 51.6249C161.811 53.8169 159.754 54.9436 157.093 54.9436C153.705 54.9436 151.888 53.1311 152.439 49.637C153.006 46.1429 155.386 44.3265 158.77 44.3265C161.526 44.3265 163.248 45.5348 163.489 47.89L161.313 48.237C161.109 46.9063 160.089 46.196 158.476 46.196C156.366 46.196 154.966 47.4573 154.619 49.637C154.284 51.8127 155.276 53.0781 157.386 53.0781C158.933 53.0781 160.142 52.4169 160.787 51.1964ZM164.82 49.637C165.383 46.1429 167.763 44.3265 171.151 44.3265C174.538 44.3265 176.351 46.1429 175.788 49.637C175.236 53.1311 172.857 54.9436 169.469 54.9436C166.085 54.9436 164.269 53.1311 164.82 49.637ZM169.767 53.0781C171.865 53.0781 173.302 51.8127 173.636 49.637C174 47.4165 172.967 46.196 170.857 46.196C168.746 46.196 167.322 47.4573 166.971 49.637C166.636 51.8127 167.656 53.0781 169.767 53.0781ZM176.796 54.6782L178.384 44.5959H181.649L183.127 51.731L186.862 44.5959H190.115L188.531 54.6782H186.38L187.535 47.339L183.731 54.6782H181.58L180.102 47.339L178.947 54.6782H176.796Z" fill="url(#paint0_linear_0_412)"/>
</g>
<defs>
<linearGradient id="paint0_linear_0_412" x1="-7.34182e-07" y1="40.2079" x2="160.893" y2="9.73993" gradientUnits="userSpaceOnUse">
<stop stop-color="#00AC0A"/>
<stop offset="1" stop-color="#0093FF"/>
</linearGradient>
<clipPath id="clip0_0_412">
<rect width="190.27" height="55" fill="white"/>
</clipPath>
</defs>
</svg>
